<svg viewBox="0 0 343 141" fill="none" xmlns="http://www.w3.org/2000/svg">
<path fill-rule="evenodd" clip-rule="evenodd" d="M339.805 138.093H3V3H339.805V138.093Z" stroke="white" stroke-width="4.627"/>
<path d="M147.834 72.8905C147.834 73.2951 147.903 73.6406 148.042 73.9268C148.18 74.2131 148.372 74.4499 148.619 74.6375C148.866 74.8151 149.147 74.9484 149.463 75.0372C149.789 75.1162 150.139 75.1556 150.514 75.1556C150.919 75.1556 151.264 75.1112 151.55 75.0224C151.837 74.9237 152.069 74.8003 152.246 74.6523C152.424 74.5042 152.552 74.3364 152.631 74.1489C152.71 73.9515 152.75 73.7541 152.75 73.5567C152.75 73.152 152.656 72.8559 152.468 72.6684C152.291 72.471 152.093 72.3328 151.876 72.2539C151.501 72.1157 151.062 71.9874 150.558 71.8689C150.065 71.7406 149.453 71.5778 148.723 71.3804C148.269 71.2619 147.889 71.1089 147.583 70.9214C147.287 70.724 147.05 70.5069 146.872 70.27C146.694 70.0331 146.566 69.7814 146.487 69.5149C146.418 69.2484 146.383 68.977 146.383 68.7007C146.383 68.1677 146.492 67.7087 146.709 67.3238C146.936 66.929 147.232 66.6033 147.597 66.3467C147.963 66.09 148.377 65.9025 148.841 65.7841C149.305 65.6558 149.774 65.5916 150.248 65.5916C150.8 65.5916 151.318 65.6656 151.802 65.8137C152.296 65.9519 152.725 66.1641 153.09 66.4503C153.465 66.7365 153.761 67.0918 153.978 67.5163C154.196 67.9308 154.304 68.4144 154.304 68.9671H152.453C152.404 68.2861 152.172 67.8074 151.758 67.5311C151.343 67.2448 150.815 67.1017 150.173 67.1017C149.956 67.1017 149.734 67.1264 149.507 67.1757C149.28 67.2152 149.073 67.2892 148.885 67.3978C148.698 67.4965 148.54 67.6347 148.412 67.8124C148.293 67.99 148.234 68.2121 148.234 68.4786C148.234 68.8536 148.348 69.1497 148.575 69.3669C148.811 69.5742 149.117 69.7321 149.492 69.8406C149.532 69.8505 149.685 69.8949 149.951 69.9739C150.228 70.043 150.534 70.1219 150.869 70.2108C151.205 70.2996 151.531 70.3884 151.846 70.4773C152.172 70.5562 152.404 70.6154 152.542 70.6549C152.888 70.7635 153.189 70.9115 153.445 71.0991C153.702 71.2866 153.914 71.5037 154.082 71.7505C154.26 71.9874 154.388 72.244 154.467 72.5203C154.556 72.7967 154.6 73.0731 154.6 73.3494C154.6 73.9416 154.477 74.4499 154.23 74.8743C153.993 75.2889 153.677 75.6294 153.283 75.8959C152.888 76.1624 152.439 76.3548 151.935 76.4733C151.432 76.6016 150.919 76.6657 150.396 76.6657C149.794 76.6657 149.226 76.5917 148.693 76.4437C148.16 76.2956 147.696 76.0686 147.301 75.7626C146.907 75.4567 146.591 75.0668 146.354 74.593C146.117 74.1094 145.994 73.5419 145.984 72.8905H147.834ZM155.214 65.8433H163.771V67.4422H160.41V76.4141H158.56V67.4422H155.214V65.8433ZM166.465 65.8433H168.434L172.506 76.4141H170.522L169.53 73.6159H165.31L164.318 76.4141H162.409L166.465 65.8433ZM165.814 72.2094H169.041L167.457 67.6643H167.413L165.814 72.2094ZM182.736 76.4141H181.551L181.27 75.1704C180.777 75.733 180.283 76.1229 179.79 76.34C179.296 76.5572 178.728 76.6657 178.087 76.6657C177.297 76.6657 176.587 76.5226 175.955 76.2364C175.333 75.9403 174.805 75.5406 174.371 75.0372C173.937 74.5338 173.601 73.9466 173.364 73.2754C173.137 72.6042 173.024 71.8887 173.024 71.1287C173.024 70.3786 173.137 69.6679 173.364 68.9968C173.601 68.3256 173.937 67.7383 174.371 67.235C174.805 66.7316 175.333 66.3319 175.955 66.0358C176.587 65.7397 177.297 65.5916 178.087 65.5916C178.659 65.5916 179.202 65.6706 179.715 65.8285C180.239 65.9765 180.702 66.2035 181.107 66.5095C181.512 66.8056 181.847 67.1807 182.114 67.6347C182.38 68.0887 182.548 68.6118 182.617 69.204H180.811C180.762 68.8586 180.653 68.5575 180.485 68.3009C180.327 68.0344 180.125 67.8124 179.878 67.6347C179.632 67.457 179.355 67.3238 179.049 67.235C178.743 67.1461 178.423 67.1017 178.087 67.1017C177.524 67.1017 177.036 67.2152 176.621 67.4422C176.217 67.6692 175.886 67.9752 175.629 68.3601C175.373 68.7352 175.18 69.1645 175.052 69.6482C174.933 70.1318 174.874 70.6253 174.874 71.1287C174.874 71.632 174.933 72.1255 175.052 72.6092C175.18 73.0928 175.373 73.5271 175.629 73.912C175.886 74.2871 176.217 74.5881 176.621 74.8151C177.036 75.0421 177.524 75.1556 178.087 75.1556C178.561 75.1655 178.98 75.1063 179.345 74.978C179.711 74.8398 180.017 74.6473 180.263 74.4006C180.52 74.144 180.712 73.8331 180.841 73.4679C180.969 73.1027 181.038 72.698 181.048 72.2539H178.235V70.8474H182.736V76.4141ZM184.746 65.8433H192.356V67.4422H186.597V70.2108H191.926V71.7209H186.597V74.8151H192.459V76.4141H184.746V65.8433Z" fill="white"/>
</svg>
